# xmcd
#
# Track frame offsets: 
#        150
#        72922
#        128795
#        176712
#
# Disc length: 3268 seconds
#
# Revision: 0
# Processed by: cddbd v1.5.2PL0 Copyright (c) Steve Scherf et al.
# Submitted via: ExactAudioCopy v1.0b2
#
DISCID=340cc204
DTITLE=Various Artist - Space Battleship Yamato CD-BOX - Grand Symphony Yamato (
DTITLE=Live Recording - Trackdown Version)
DYEAR=2004
DGENRE=Soundtrack
TTITLE0=First Movement: Birth
TTITLE1=Second Movement: Battle (Scherzo)
TTITLE2=Third Movement: Prayer (Adagio)
TTITLE3=Fourth Movement: Hope for Tomorrow (Concerto)
EXTD=YEAR: 1984.9.21
EXTT0=
EXTT1=
EXTT2=
EXTT3=
PLAYORDER=
